<svg width="315" height="60" viewBox="0 0 315 60" fill="none" xmlns="http://www.w3.org/2000/svg">
<g clip-path="url(#clip0_3_2)">
<rect width="315" height="60" fill="white" fill-opacity="0.22"/>
<path d="M79.296 40L75.6 33.472H74.016V40H70.656V23.248H76.944C78.24 23.248 79.344 23.48 80.256 23.944C81.168 24.392 81.848 25.008 82.296 25.792C82.76 26.56 82.992 27.424 82.992 28.384C82.992 29.488 82.672 30.488 82.032 31.384C81.392 32.264 80.44 32.872 79.176 33.208L83.184 40H79.296ZM74.016 30.952H76.824C77.736 30.952 78.416 30.736 78.864 30.304C79.312 29.856 79.536 29.24 79.536 28.456C79.536 27.688 79.312 27.096 78.864 26.68C78.416 26.248 77.736 26.032 76.824 26.032H74.016V30.952ZM98.391 33.064C98.391 33.544 98.359 33.976 98.295 34.36H88.575C88.655 35.32 88.991 36.072 89.583 36.616C90.175 37.16 90.903 37.432 91.767 37.432C93.015 37.432 93.903 36.896 94.431 35.824H98.055C97.671 37.104 96.935 38.16 95.847 38.992C94.759 39.808 93.423 40.216 91.839 40.216C90.559 40.216 89.407 39.936 88.383 39.376C87.375 38.8 86.583 37.992 86.007 36.952C85.447 35.912 85.167 34.712 85.167 33.352C85.167 31.976 85.447 30.768 86.007 29.728C86.567 28.688 87.351 27.888 88.359 27.328C89.367 26.768 90.527 26.488 91.839 26.488C93.103 26.488 94.231 26.76 95.223 27.304C96.231 27.848 97.007 28.624 97.551 29.632C98.111 30.624 98.391 31.768 98.391 33.064ZM94.911 32.104C94.895 31.24 94.583 30.552 93.975 30.04C93.367 29.512 92.623 29.248 91.743 29.248C90.911 29.248 90.207 29.504 89.631 30.016C89.071 30.512 88.727 31.208 88.599 32.104H94.911ZM99.9795 33.304C99.9795 31.96 100.243 30.768 100.771 29.728C101.316 28.688 102.052 27.888 102.98 27.328C103.908 26.768 104.94 26.488 106.076 26.488C106.94 26.488 107.764 26.68 108.548 27.064C109.332 27.432 109.956 27.928 110.42 28.552V22.24H113.828V40H110.42V38.032C110.004 38.688 109.42 39.216 108.668 39.616C107.916 40.016 107.044 40.216 106.052 40.216C104.932 40.216 103.908 39.928 102.98 39.352C102.052 38.776 101.316 37.968 100.771 36.928C100.243 35.872 99.9795 34.664 99.9795 33.304ZM110.444 33.352C110.444 32.536 110.284 31.84 109.964 31.264C109.644 30.672 109.212 30.224 108.668 29.92C108.124 29.6 107.54 29.44 106.916 29.44C106.292 29.44 105.716 29.592 105.188 29.896C104.66 30.2 104.228 30.648 103.892 31.24C103.572 31.816 103.412 32.504 103.412 33.304C103.412 34.104 103.572 34.808 103.892 35.416C104.228 36.008 104.66 36.464 105.188 36.784C105.732 37.104 106.308 37.264 106.916 37.264C107.54 37.264 108.124 37.112 108.668 36.808C109.212 36.488 109.644 36.04 109.964 35.464C110.284 34.872 110.444 34.168 110.444 33.352ZM116.245 33.304C116.245 31.96 116.509 30.768 117.037 29.728C117.581 28.688 118.317 27.888 119.245 27.328C120.173 26.768 121.205 26.488 122.341 26.488C123.205 26.488 124.029 26.68 124.813 27.064C125.597 27.432 126.221 27.928 126.685 28.552V22.24H130.093V40H126.685V38.032C126.269 38.688 125.685 39.216 124.933 39.616C124.181 40.016 123.309 40.216 122.317 40.216C121.197 40.216 120.173 39.928 119.245 39.352C118.317 38.776 117.581 37.968 117.037 36.928C116.509 35.872 116.245 34.664 116.245 33.304ZM126.709 33.352C126.709 32.536 126.549 31.84 126.229 31.264C125.909 30.672 125.477 30.224 124.933 29.92C124.389 29.6 123.805 29.44 123.181 29.44C122.557 29.44 121.981 29.592 121.453 29.896C120.925 30.2 120.493 30.648 120.157 31.24C119.837 31.816 119.677 32.504 119.677 33.304C119.677 34.104 119.837 34.808 120.157 35.416C120.493 36.008 120.925 36.464 121.453 36.784C121.997 37.104 122.573 37.264 123.181 37.264C123.805 37.264 124.389 37.112 124.933 36.808C125.477 36.488 125.909 36.04 126.229 35.464C126.549 34.872 126.709 34.168 126.709 33.352ZM135.079 25.12C134.487 25.12 133.991 24.936 133.591 24.568C133.207 24.184 133.015 23.712 133.015 23.152C133.015 22.592 133.207 22.128 133.591 21.76C133.991 21.376 134.487 21.184 135.079 21.184C135.671 21.184 136.159 21.376 136.543 21.76C136.943 22.128 137.143 22.592 137.143 23.152C137.143 23.712 136.943 24.184 136.543 24.568C136.159 24.936 135.671 25.12 135.079 25.12ZM136.735 26.704V40H133.375V26.704H136.735ZM143.966 29.464V35.896C143.966 36.344 144.07 36.672 144.278 36.88C144.502 37.072 144.87 37.168 145.382 37.168H146.942V40H144.83C141.998 40 140.582 38.624 140.582 35.872V29.464H138.998V26.704H140.582V23.416H143.966V26.704H146.942V29.464H143.966ZM150.847 40.168C150.239 40.168 149.735 39.984 149.335 39.616C148.951 39.232 148.759 38.76 148.759 38.2C148.759 37.64 148.951 37.176 149.335 36.808C149.735 36.424 150.239 36.232 150.847 36.232C151.439 36.232 151.927 36.424 152.311 36.808C152.695 37.176 152.887 37.64 152.887 38.2C152.887 38.76 152.695 39.232 152.311 39.616C151.927 39.984 151.439 40.168 150.847 40.168ZM167.096 40.168C165.928 40.168 164.872 39.968 163.928 39.568C163 39.168 162.264 38.592 161.72 37.84C161.176 37.088 160.896 36.2 160.88 35.176H164.48C164.528 35.864 164.768 36.408 165.2 36.808C165.648 37.208 166.256 37.408 167.024 37.408C167.808 37.408 168.424 37.224 168.872 36.856C169.32 36.472 169.544 35.976 169.544 35.368C169.544 34.872 169.392 34.464 169.088 34.144C168.784 33.824 168.4 33.576 167.936 33.4C167.488 33.208 166.864 33 166.064 32.776C164.976 32.456 164.088 32.144 163.4 31.84C162.728 31.52 162.144 31.048 161.648 30.424C161.168 29.784 160.928 28.936 160.928 27.88C160.928 26.888 161.176 26.024 161.672 25.288C162.168 24.552 162.864 23.992 163.76 23.608C164.656 23.208 165.68 23.008 166.832 23.008C168.56 23.008 169.96 23.432 171.032 24.28C172.12 25.112 172.72 26.28 172.832 27.784H169.136C169.104 27.208 168.856 26.736 168.392 26.368C167.944 25.984 167.344 25.792 166.592 25.792C165.936 25.792 165.408 25.96 165.008 26.296C164.624 26.632 164.432 27.12 164.432 27.76C164.432 28.208 164.576 28.584 164.864 28.888C165.168 29.176 165.536 29.416 165.968 29.608C166.416 29.784 167.04 29.992 167.84 30.232C168.928 30.552 169.816 30.872 170.504 31.192C171.192 31.512 171.784 31.992 172.28 32.632C172.776 33.272 173.024 34.112 173.024 35.152C173.024 36.048 172.792 36.88 172.328 37.648C171.864 38.416 171.184 39.032 170.288 39.496C169.392 39.944 168.328 40.168 167.096 40.168ZM179.849 29.464V35.896C179.849 36.344 179.953 36.672 180.161 36.88C180.385 37.072 180.753 37.168 181.265 37.168H182.825V40H180.713C177.881 40 176.465 38.624 176.465 35.872V29.464H174.881V26.704H176.465V23.416H179.849V26.704H182.825V29.464H179.849ZM184.378 33.304C184.378 31.96 184.642 30.768 185.17 29.728C185.714 28.688 186.442 27.888 187.354 27.328C188.282 26.768 189.314 26.488 190.45 26.488C191.442 26.488 192.306 26.688 193.042 27.088C193.794 27.488 194.394 27.992 194.842 28.6V26.704H198.226V40H194.842V38.056C194.41 38.68 193.81 39.2 193.042 39.616C192.29 40.016 191.418 40.216 190.426 40.216C189.306 40.216 188.282 39.928 187.354 39.352C186.442 38.776 185.714 37.968 185.17 36.928C184.642 35.872 184.378 34.664 184.378 33.304ZM194.842 33.352C194.842 32.536 194.682 31.84 194.362 31.264C194.042 30.672 193.61 30.224 193.066 29.92C192.522 29.6 191.938 29.44 191.314 29.44C190.69 29.44 190.114 29.592 189.586 29.896C189.058 30.2 188.626 30.648 188.29 31.24C187.97 31.816 187.81 32.504 187.81 33.304C187.81 34.104 187.97 34.808 188.29 35.416C188.626 36.008 189.058 36.464 189.586 36.784C190.13 37.104 190.706 37.264 191.314 37.264C191.938 37.264 192.522 37.112 193.066 36.808C193.61 36.488 194.042 36.04 194.362 35.464C194.682 34.872 194.842 34.168 194.842 33.352ZM214.228 26.704L205.996 46.288H202.42L205.3 39.664L199.972 26.704H203.74L207.172 35.992L210.652 26.704H214.228ZM220.894 33.352C220.894 31.976 221.174 30.776 221.734 29.752C222.294 28.712 223.07 27.912 224.062 27.352C225.054 26.776 226.19 26.488 227.47 26.488C229.118 26.488 230.478 26.904 231.55 27.736C232.638 28.552 233.366 29.704 233.734 31.192H230.11C229.918 30.616 229.59 30.168 229.126 29.848C228.678 29.512 228.118 29.344 227.446 29.344C226.486 29.344 225.726 29.696 225.166 30.4C224.606 31.088 224.326 32.072 224.326 33.352C224.326 34.616 224.606 35.6 225.166 36.304C225.726 36.992 226.486 37.336 227.446 37.336C228.806 37.336 229.694 36.728 230.11 35.512H233.734C233.366 36.952 232.638 38.096 231.55 38.944C230.462 39.792 229.102 40.216 227.47 40.216C226.19 40.216 225.054 39.936 224.062 39.376C223.07 38.8 222.294 38 221.734 36.976C221.174 35.936 220.894 34.728 220.894 33.352ZM248.747 26.704V40H245.363V38.32C244.931 38.896 244.363 39.352 243.659 39.688C242.971 40.008 242.219 40.168 241.403 40.168C240.363 40.168 239.443 39.952 238.643 39.52C237.843 39.072 237.211 38.424 236.747 37.576C236.299 36.712 236.075 35.688 236.075 34.504V26.704H239.435V34.024C239.435 35.08 239.699 35.896 240.227 36.472C240.755 37.032 241.475 37.312 242.387 37.312C243.315 37.312 244.043 37.032 244.571 36.472C245.099 35.896 245.363 35.08 245.363 34.024V26.704H248.747ZM255.422 28.768C255.854 28.064 256.414 27.512 257.102 27.112C257.806 26.712 258.606 26.512 259.502 26.512V30.04H258.614C257.558 30.04 256.758 30.288 256.214 30.784C255.686 31.28 255.422 32.144 255.422 33.376V40H252.062V26.704H255.422V28.768ZM263.469 25.12C262.877 25.12 262.381 24.936 261.981 24.568C261.597 24.184 261.405 23.712 261.405 23.152C261.405 22.592 261.597 22.128 261.981 21.76C262.381 21.376 262.877 21.184 263.469 21.184C264.061 21.184 264.549 21.376 264.933 21.76C265.333 22.128 265.533 22.592 265.533 23.152C265.533 23.712 265.333 24.184 264.933 24.568C264.549 24.936 264.061 25.12 263.469 25.12ZM265.125 26.704V40H261.765V26.704H265.125ZM274.349 40.216C273.069 40.216 271.917 39.936 270.893 39.376C269.869 38.8 269.061 37.992 268.469 36.952C267.893 35.912 267.605 34.712 267.605 33.352C267.605 31.992 267.901 30.792 268.493 29.752C269.101 28.712 269.925 27.912 270.965 27.352C272.005 26.776 273.165 26.488 274.445 26.488C275.725 26.488 276.885 26.776 277.925 27.352C278.965 27.912 279.781 28.712 280.373 29.752C280.981 30.792 281.285 31.992 281.285 33.352C281.285 34.712 280.973 35.912 280.349 36.952C279.741 37.992 278.909 38.8 277.853 39.376C276.813 39.936 275.645 40.216 274.349 40.216ZM274.349 37.288C274.957 37.288 275.525 37.144 276.053 36.856C276.597 36.552 277.029 36.104 277.349 35.512C277.669 34.92 277.829 34.2 277.829 33.352C277.829 32.088 277.493 31.12 276.821 30.448C276.165 29.76 275.357 29.416 274.397 29.416C273.437 29.416 272.629 29.76 271.973 30.448C271.333 31.12 271.013 32.088 271.013 33.352C271.013 34.616 271.325 35.592 271.949 36.28C272.589 36.952 273.389 37.288 274.349 37.288ZM296.302 26.704V40H292.918V38.32C292.486 38.896 291.918 39.352 291.214 39.688C290.526 40.008 289.774 40.168 288.958 40.168C287.918 40.168 286.998 39.952 286.198 39.52C285.398 39.072 284.766 38.424 284.302 37.576C283.854 36.712 283.63 35.688 283.63 34.504V26.704H286.99V34.024C286.99 35.08 287.254 35.896 287.782 36.472C288.31 37.032 289.03 37.312 289.942 37.312C290.87 37.312 291.598 37.032 292.126 36.472C292.654 35.896 292.918 35.08 292.918 34.024V26.704H296.302ZM304.705 40.216C303.617 40.216 302.641 40.024 301.777 39.64C300.913 39.24 300.225 38.704 299.713 38.032C299.217 37.36 298.945 36.616 298.897 35.8H302.281C302.345 36.312 302.593 36.736 303.025 37.072C303.473 37.408 304.025 37.576 304.681 37.576C305.321 37.576 305.817 37.448 306.169 37.192C306.537 36.936 306.721 36.608 306.721 36.208C306.721 35.776 306.497 35.456 306.049 35.248C305.617 35.024 304.921 34.784 303.961 34.528C302.969 34.288 302.153 34.04 301.513 33.784C300.889 33.528 300.345 33.136 299.881 32.608C299.433 32.08 299.209 31.368 299.209 30.472C299.209 29.736 299.417 29.064 299.833 28.456C300.265 27.848 300.873 27.368 301.657 27.016C302.457 26.664 303.393 26.488 304.465 26.488C306.049 26.488 307.313 26.888 308.257 27.688C309.201 28.472 309.721 29.536 309.817 30.88H306.601C306.553 30.352 306.329 29.936 305.929 29.632C305.545 29.312 305.025 29.152 304.369 29.152C303.761 29.152 303.289 29.264 302.953 29.488C302.633 29.712 302.473 30.024 302.473 30.424C302.473 30.872 302.697 31.216 303.145 31.456C303.593 31.68 304.289 31.912 305.233 32.152C306.193 32.392 306.985 32.64 307.609 32.896C308.233 33.152 308.769 33.552 309.217 34.096C309.681 34.624 309.921 35.328 309.937 36.208C309.937 36.976 309.721 37.664 309.289 38.272C308.873 38.88 308.265 39.36 307.465 39.712C306.681 40.048 305.761 40.216 304.705 40.216Z" fill="#FA542F"/>
<ellipse cx="35" cy="30.5" rx="25" ry="25.5" fill="#FA542F"/>
<path d="M27.4814 35.5064C24.5341 35.5064 22.1388 32.9849 22.1388 29.8854C22.1388 26.786 24.536 24.2645 27.4814 24.2645C30.4268 24.2645 32.824 26.786 32.824 29.8854C32.824 32.9849 30.4268 35.5064 27.4814 35.5064V35.5064Z" fill="#FAFAFA"/>
<path d="M27.4814 24.5289C28.7478 24.5289 29.9608 25.0578 30.8948 26.0191C31.8919 27.0439 32.442 28.4177 32.442 29.8854C32.442 31.3532 31.8919 32.727 30.8948 33.7518C29.9608 34.7131 28.7478 35.242 27.4814 35.242C26.215 35.242 25.0021 34.7131 24.068 33.7518C23.069 32.727 22.5208 31.3532 22.5208 29.8854C22.5208 28.4177 23.0709 27.0439 24.068 26.0191C25.0021 25.0578 26.2131 24.5289 27.4814 24.5289M27.4814 24C24.3202 24 21.7568 26.6353 21.7568 29.8854C21.7568 33.1356 24.3202 35.7709 27.4814 35.7709C30.6427 35.7709 33.2061 33.1356 33.2061 29.8854C33.2061 26.6353 30.6427 24 27.4814 24V24Z" fill="#FAFAFA"/>
<path d="M25.8521 29.3354C25.3363 28.9995 25.4509 28.3331 26.1119 27.8465C26.1462 27.8214 26.1806 27.7976 26.2169 27.7751C25.9227 27.6601 25.5999 27.5953 25.2599 27.5953C23.8866 27.5953 22.7729 28.6438 22.7729 29.9357C22.7729 31.2276 23.8866 32.2761 25.2599 32.2761C26.6333 32.2761 27.7469 31.2276 27.7469 29.9357C27.7469 29.7043 27.7106 29.4795 27.6438 29.2679C27.0249 29.576 26.2857 29.617 25.8521 29.3354V29.3354Z" fill="url(#paint0_linear_3_2)"/>
<path d="M38.8811 35.7709C42.0427 35.7709 44.6057 33.1359 44.6057 29.8854C44.6057 26.635 42.0427 24 38.8811 24C35.7194 24 33.1564 26.635 33.1564 29.8854C33.1564 33.1359 35.7194 35.7709 38.8811 35.7709Z" fill="#EEEEEE"/>
<path d="M38.8811 35.5064C35.9356 35.5064 33.5384 32.9849 33.5384 29.8854C33.5384 26.786 35.9356 24.2645 38.8811 24.2645C41.8265 24.2645 44.2237 26.786 44.2237 29.8854C44.2237 32.9849 41.8284 35.5064 38.8811 35.5064V35.5064Z" fill="#FAFAFA"/>
<path d="M38.8811 24.5289C40.1475 24.5289 41.3604 25.0578 42.2945 26.0191C43.2915 27.0439 43.8417 28.4177 43.8417 29.8854C43.8417 31.3532 43.2915 32.727 42.2945 33.7518C41.3604 34.7131 40.1475 35.242 38.8811 35.242C37.6146 35.242 36.4017 34.7131 35.4677 33.7518C34.4706 32.727 33.9205 31.3532 33.9205 29.8854C33.9205 28.4177 34.4706 27.0439 35.4677 26.0191C36.4017 25.0578 37.6146 24.5289 38.8811 24.5289M38.8811 24C35.7198 24 33.1564 26.6353 33.1564 29.8854C33.1564 33.1356 35.7198 35.7709 38.8811 35.7709C42.0423 35.7709 44.6057 33.1356 44.6057 29.8854C44.6057 26.6353 42.0423 24 38.8811 24V24Z" fill="#FAFAFA"/>
<path d="M37.2517 29.3354C36.736 28.9995 36.8506 28.3331 37.5115 27.8465C37.5459 27.8214 37.5802 27.7976 37.6165 27.7751C37.3224 27.6601 36.9996 27.5953 36.6596 27.5953C35.2862 27.5953 34.1726 28.6438 34.1726 29.9357C34.1726 31.2276 35.2862 32.2761 36.6596 32.2761C38.0329 32.2761 39.1465 31.2276 39.1465 29.9357C39.1465 29.7043 39.1103 29.4795 39.0434 29.2679C38.4264 29.576 37.6853 29.617 37.2517 29.3354V29.3354Z" fill="url(#paint1_linear_3_2)"/>
</g>
<defs>
<linearGradient id="paint0_linear_3_2" x1="25.2587" y1="27.5947" x2="25.2587" y2="32.2765" gradientUnits="userSpaceOnUse">
<stop stop-color="#424242"/>
<stop offset="1" stop-color="#212121"/>
</linearGradient>
<linearGradient id="paint1_linear_3_2" x1="36.6594" y1="27.5947" x2="36.6594" y2="32.2765" gradientUnits="userSpaceOnUse">
<stop stop-color="#424242"/>
<stop offset="1" stop-color="#212121"/>
</linearGradient>
<clipPath id="clip0_3_2">
<rect width="315" height="60" fill="white"/>
</clipPath>
</defs>
</svg>
