<svg width="229" height="60" viewBox="0 0 229 60" fill="none" xmlns="http://www.w3.org/2000/svg">
<g clip-path="url(#clip0_6_2)">
<rect width="229" height="60" fill="white" fill-opacity="0.22"/>
<path d="M71.864 42L69.4 37.648H68.344V42H66.104V30.832H70.296C71.16 30.832 71.896 30.9867 72.504 31.296C73.112 31.5947 73.5653 32.0053 73.864 32.528C74.1733 33.04 74.328 33.616 74.328 34.256C74.328 34.992 74.1147 35.6587 73.688 36.256C73.2613 36.8427 72.6267 37.248 71.784 37.472L74.456 42H71.864ZM68.344 35.968H70.216C70.824 35.968 71.2773 35.824 71.576 35.536C71.8747 35.2373 72.024 34.8267 72.024 34.304C72.024 33.792 71.8747 33.3973 71.576 33.12C71.2773 32.832 70.824 32.688 70.216 32.688H68.344V35.968ZM84.594 37.376C84.594 37.696 84.5727 37.984 84.53 38.24H78.05C78.1033 38.88 78.3273 39.3813 78.722 39.744C79.1167 40.1067 79.602 40.288 80.178 40.288C81.01 40.288 81.602 39.9307 81.954 39.216H84.37C84.114 40.0693 83.6233 40.7733 82.898 41.328C82.1727 41.872 81.282 42.144 80.226 42.144C79.3727 42.144 78.6047 41.9573 77.922 41.584C77.25 41.2 76.722 40.6613 76.338 39.968C75.9647 39.2747 75.778 38.4747 75.778 37.568C75.778 36.6507 75.9647 35.8453 76.338 35.152C76.7113 34.4587 77.234 33.9253 77.906 33.552C78.578 33.1787 79.3513 32.992 80.226 32.992C81.0687 32.992 81.8207 33.1733 82.482 33.536C83.154 33.8987 83.6713 34.416 84.034 35.088C84.4073 35.7493 84.594 36.512 84.594 37.376ZM82.274 36.736C82.2633 36.16 82.0553 35.7013 81.65 35.36C81.2447 35.008 80.7487 34.832 80.162 34.832C79.6073 34.832 79.138 35.0027 78.754 35.344C78.3807 35.6747 78.1513 36.1387 78.066 36.736H82.274ZM85.653 37.536C85.653 36.64 85.829 35.8453 86.181 35.152C86.5437 34.4587 87.0343 33.9253 87.653 33.552C88.2717 33.1787 88.9597 32.992 89.717 32.992C90.293 32.992 90.8423 33.12 91.365 33.376C91.8877 33.6213 92.3037 33.952 92.613 34.368V30.16H94.885V42H92.613V40.688C92.3357 41.1253 91.9463 41.4773 91.445 41.744C90.9437 42.0107 90.3623 42.144 89.701 42.144C88.9543 42.144 88.2717 41.952 87.653 41.568C87.0343 41.184 86.5437 40.6453 86.181 39.952C85.829 39.248 85.653 38.4427 85.653 37.536ZM92.629 37.568C92.629 37.024 92.5223 36.56 92.309 36.176C92.0957 35.7813 91.8077 35.4827 91.445 35.28C91.0823 35.0667 90.693 34.96 90.277 34.96C89.861 34.96 89.477 35.0613 89.125 35.264C88.773 35.4667 88.485 35.7653 88.261 36.16C88.0477 36.544 87.941 37.0027 87.941 37.536C87.941 38.0693 88.0477 38.5387 88.261 38.944C88.485 39.3387 88.773 39.6427 89.125 39.856C89.4877 40.0693 89.8717 40.176 90.277 40.176C90.693 40.176 91.0823 40.0747 91.445 39.872C91.8077 39.6587 92.0957 39.36 92.309 38.976C92.5223 38.5813 92.629 38.112 92.629 37.568ZM96.4967 37.536C96.4967 36.64 96.6727 35.8453 97.0247 35.152C97.3874 34.4587 97.8781 33.9253 98.4968 33.552C99.1154 33.1787 99.8034 32.992 100.561 32.992C101.137 32.992 101.686 33.12 102.209 33.376C102.731 33.6213 103.147 33.952 103.457 34.368V30.16H105.729V42H103.457V40.688C103.179 41.1253 102.79 41.4773 102.289 41.744C101.787 42.0107 101.206 42.144 100.545 42.144C99.7981 42.144 99.1154 41.952 98.4968 41.568C97.8781 41.184 97.3874 40.6453 97.0247 39.952C96.6727 39.248 96.4967 38.4427 96.4967 37.536ZM103.473 37.568C103.473 37.024 103.366 36.56 103.153 36.176C102.939 35.7813 102.651 35.4827 102.289 35.28C101.926 35.0667 101.537 34.96 101.121 34.96C100.705 34.96 100.321 35.0613 99.9688 35.264C99.6168 35.4667 99.3288 35.7653 99.1048 36.16C98.8914 36.544 98.7848 37.0027 98.7848 37.536C98.7848 38.0693 98.8914 38.5387 99.1048 38.944C99.3288 39.3387 99.6168 39.6427 99.9688 39.856C100.331 40.0693 100.715 40.176 101.121 40.176C101.537 40.176 101.926 40.0747 102.289 39.872C102.651 39.6587 102.939 39.36 103.153 38.976C103.366 38.5813 103.473 38.112 103.473 37.568ZM109.053 32.08C108.658 32.08 108.327 31.9573 108.061 31.712C107.805 31.456 107.677 31.1413 107.677 30.768C107.677 30.3947 107.805 30.0853 108.061 29.84C108.327 29.584 108.658 29.456 109.053 29.456C109.447 29.456 109.773 29.584 110.029 29.84C110.295 30.0853 110.429 30.3947 110.429 30.768C110.429 31.1413 110.295 31.456 110.029 31.712C109.773 31.9573 109.447 32.08 109.053 32.08ZM110.157 33.136V42H107.917V33.136H110.157ZM114.978 34.976V39.264C114.978 39.5627 115.047 39.7813 115.186 39.92C115.335 40.048 115.58 40.112 115.922 40.112H116.962V42H115.554C113.666 42 112.722 41.0827 112.722 39.248V34.976H111.666V33.136H112.722V30.944H114.978V33.136H116.962V34.976H114.978ZM119.565 42.112C119.159 42.112 118.823 41.9893 118.557 41.744C118.301 41.488 118.173 41.1733 118.173 40.8C118.173 40.4267 118.301 40.1173 118.557 39.872C118.823 39.616 119.159 39.488 119.565 39.488C119.959 39.488 120.285 39.616 120.541 39.872C120.797 40.1173 120.925 40.4267 120.925 40.8C120.925 41.1733 120.797 41.488 120.541 41.744C120.285 41.9893 119.959 42.112 119.565 42.112ZM130.206 42.112C129.47 42.112 128.808 41.984 128.222 41.728C127.646 41.4613 127.192 41.0987 126.862 40.64C126.531 40.1707 126.36 39.632 126.35 39.024H127.902C127.955 39.5467 128.168 39.9893 128.542 40.352C128.926 40.704 129.48 40.88 130.206 40.88C130.899 40.88 131.443 40.7093 131.838 40.368C132.243 40.016 132.446 39.568 132.446 39.024C132.446 38.5973 132.328 38.2507 132.094 37.984C131.859 37.7173 131.566 37.5147 131.214 37.376C130.862 37.2373 130.387 37.088 129.79 36.928C129.054 36.736 128.462 36.544 128.014 36.352C127.576 36.16 127.198 35.8613 126.878 35.456C126.568 35.04 126.414 34.4853 126.414 33.792C126.414 33.184 126.568 32.6453 126.878 32.176C127.187 31.7067 127.619 31.344 128.174 31.088C128.739 30.832 129.384 30.704 130.11 30.704C131.155 30.704 132.008 30.9653 132.67 31.488C133.342 32.0107 133.72 32.704 133.806 33.568H132.206C132.152 33.1413 131.928 32.768 131.534 32.448C131.139 32.1173 130.616 31.952 129.966 31.952C129.358 31.952 128.862 32.112 128.478 32.432C128.094 32.7413 127.902 33.1787 127.902 33.744C127.902 34.1493 128.014 34.48 128.238 34.736C128.472 34.992 128.755 35.1893 129.086 35.328C129.427 35.456 129.902 35.6053 130.51 35.776C131.246 35.9787 131.838 36.1813 132.286 36.384C132.734 36.576 133.118 36.88 133.438 37.296C133.758 37.7013 133.918 38.256 133.918 38.96C133.918 39.504 133.774 40.016 133.486 40.496C133.198 40.976 132.771 41.3653 132.206 41.664C131.64 41.9627 130.974 42.112 130.206 42.112ZM137.836 34.432V39.6C137.836 40.0267 137.927 40.3307 138.108 40.512C138.289 40.6827 138.604 40.768 139.052 40.768H140.124V42H138.812C138.001 42 137.393 41.8133 136.988 41.44C136.583 41.0667 136.38 40.4533 136.38 39.6V34.432H135.244V33.232H136.38V31.024H137.836V33.232H140.124V34.432H137.836ZM141.344 37.584C141.344 36.688 141.526 35.904 141.888 35.232C142.251 34.5493 142.747 34.0213 143.376 33.648C144.016 33.2747 144.726 33.088 145.504 33.088C146.272 33.088 146.939 33.2533 147.504 33.584C148.07 33.9147 148.491 34.3307 148.768 34.832V33.232H150.24V42H148.768V40.368C148.48 40.88 148.048 41.3067 147.472 41.648C146.907 41.9787 146.246 42.144 145.488 42.144C144.71 42.144 144.006 41.952 143.376 41.568C142.747 41.184 142.251 40.6453 141.888 39.952C141.526 39.2587 141.344 38.4693 141.344 37.584ZM148.768 37.6C148.768 36.9387 148.635 36.3627 148.368 35.872C148.102 35.3813 147.739 35.008 147.28 34.752C146.832 34.4853 146.336 34.352 145.792 34.352C145.248 34.352 144.752 34.48 144.304 34.736C143.856 34.992 143.499 35.3653 143.232 35.856C142.966 36.3467 142.832 36.9227 142.832 37.584C142.832 38.256 142.966 38.8427 143.232 39.344C143.499 39.8347 143.856 40.2133 144.304 40.48C144.752 40.736 145.248 40.864 145.792 40.864C146.336 40.864 146.832 40.736 147.28 40.48C147.739 40.2133 148.102 39.8347 148.368 39.344C148.635 38.8427 148.768 38.2613 148.768 37.6ZM160.253 33.232L154.973 46.128H153.469L155.197 41.904L151.661 33.232H153.277L156.029 40.336L158.749 33.232H160.253ZM165.438 37.6C165.438 36.6933 165.619 35.904 165.982 35.232C166.345 34.5493 166.846 34.0213 167.486 33.648C168.137 33.2747 168.878 33.088 169.71 33.088C170.787 33.088 171.673 33.3493 172.366 33.872C173.07 34.3947 173.534 35.12 173.758 36.048H172.19C172.041 35.5147 171.747 35.0933 171.31 34.784C170.883 34.4747 170.35 34.32 169.71 34.32C168.878 34.32 168.206 34.608 167.694 35.184C167.182 35.7493 166.926 36.5547 166.926 37.6C166.926 38.656 167.182 39.472 167.694 40.048C168.206 40.624 168.878 40.912 169.71 40.912C170.35 40.912 170.883 40.7627 171.31 40.464C171.737 40.1653 172.03 39.7387 172.19 39.184H173.758C173.523 40.08 173.054 40.8 172.35 41.344C171.646 41.8773 170.766 42.144 169.71 42.144C168.878 42.144 168.137 41.9573 167.486 41.584C166.846 41.2107 166.345 40.6827 165.982 40C165.619 39.3173 165.438 38.5173 165.438 37.6ZM183.477 33.232V42H182.021V40.704C181.743 41.152 181.354 41.504 180.853 41.76C180.362 42.0053 179.818 42.128 179.221 42.128C178.538 42.128 177.925 41.9893 177.381 41.712C176.837 41.424 176.405 40.9973 176.085 40.432C175.775 39.8667 175.621 39.1787 175.621 38.368V33.232H177.061V38.176C177.061 39.04 177.279 39.7067 177.717 40.176C178.154 40.6347 178.751 40.864 179.509 40.864C180.287 40.864 180.901 40.624 181.349 40.144C181.797 39.664 182.021 38.9653 182.021 38.048V33.232H183.477ZM187.391 34.656C187.647 34.1547 188.01 33.7653 188.479 33.488C188.959 33.2107 189.54 33.072 190.223 33.072V34.576H189.839C188.207 34.576 187.391 35.4613 187.391 37.232V42H185.935V33.232H187.391V34.656ZM192.656 31.808C192.379 31.808 192.144 31.712 191.952 31.52C191.76 31.328 191.664 31.0933 191.664 30.816C191.664 30.5387 191.76 30.304 191.952 30.112C192.144 29.92 192.379 29.824 192.656 29.824C192.923 29.824 193.147 29.92 193.328 30.112C193.52 30.304 193.616 30.5387 193.616 30.816C193.616 31.0933 193.52 31.328 193.328 31.52C193.147 31.712 192.923 31.808 192.656 31.808ZM193.36 33.232V42H191.904V33.232H193.36ZM199.665 42.144C198.844 42.144 198.097 41.9573 197.425 41.584C196.764 41.2107 196.241 40.6827 195.857 40C195.484 39.3067 195.297 38.5067 195.297 37.6C195.297 36.704 195.489 35.9147 195.873 35.232C196.268 34.5387 196.801 34.0107 197.473 33.648C198.145 33.2747 198.897 33.088 199.729 33.088C200.561 33.088 201.313 33.2747 201.985 33.648C202.657 34.0107 203.185 34.5333 203.569 35.216C203.964 35.8987 204.161 36.6933 204.161 37.6C204.161 38.5067 203.959 39.3067 203.553 40C203.159 40.6827 202.62 41.2107 201.937 41.584C201.255 41.9573 200.497 42.144 199.665 42.144ZM199.665 40.864C200.188 40.864 200.679 40.7413 201.137 40.496C201.596 40.2507 201.964 39.8827 202.241 39.392C202.529 38.9013 202.673 38.304 202.673 37.6C202.673 36.896 202.535 36.2987 202.257 35.808C201.98 35.3173 201.617 34.9547 201.169 34.72C200.721 34.4747 200.236 34.352 199.713 34.352C199.18 34.352 198.689 34.4747 198.241 34.72C197.804 34.9547 197.452 35.3173 197.185 35.808C196.919 36.2987 196.785 36.896 196.785 37.6C196.785 38.3147 196.913 38.9173 197.169 39.408C197.436 39.8987 197.788 40.2667 198.225 40.512C198.663 40.7467 199.143 40.864 199.665 40.864ZM213.852 33.232V42H212.396V40.704C212.118 41.152 211.729 41.504 211.228 41.76C210.737 42.0053 210.193 42.128 209.596 42.128C208.913 42.128 208.3 41.9893 207.756 41.712C207.212 41.424 206.78 40.9973 206.46 40.432C206.15 39.8667 205.996 39.1787 205.996 38.368V33.232H207.436V38.176C207.436 39.04 207.654 39.7067 208.092 40.176C208.529 40.6347 209.126 40.864 209.884 40.864C210.662 40.864 211.276 40.624 211.724 40.144C212.172 39.664 212.396 38.9653 212.396 38.048V33.232H213.852ZM219.414 42.144C218.742 42.144 218.139 42.032 217.606 41.808C217.073 41.5733 216.651 41.2533 216.342 40.848C216.033 40.432 215.862 39.9573 215.83 39.424H217.334C217.377 39.8613 217.579 40.2187 217.942 40.496C218.315 40.7733 218.801 40.912 219.398 40.912C219.953 40.912 220.39 40.7893 220.71 40.544C221.03 40.2987 221.19 39.9893 221.19 39.616C221.19 39.232 221.019 38.9493 220.678 38.768C220.337 38.576 219.809 38.3893 219.094 38.208C218.443 38.0373 217.91 37.8667 217.494 37.696C217.089 37.5147 216.737 37.2533 216.438 36.912C216.15 36.56 216.006 36.1013 216.006 35.536C216.006 35.088 216.139 34.6773 216.406 34.304C216.673 33.9307 217.051 33.6373 217.542 33.424C218.033 33.2 218.593 33.088 219.222 33.088C220.193 33.088 220.977 33.3333 221.574 33.824C222.171 34.3147 222.491 34.9867 222.534 35.84H221.078C221.046 35.3813 220.859 35.0133 220.518 34.736C220.187 34.4587 219.739 34.32 219.174 34.32C218.651 34.32 218.235 34.432 217.926 34.656C217.617 34.88 217.462 35.1733 217.462 35.536C217.462 35.824 217.553 36.064 217.734 36.256C217.926 36.4373 218.161 36.5867 218.438 36.704C218.726 36.8107 219.121 36.9333 219.622 37.072C220.251 37.2427 220.763 37.4133 221.158 37.584C221.553 37.744 221.889 37.9893 222.166 38.32C222.454 38.6507 222.603 39.0827 222.614 39.616C222.614 40.096 222.481 40.528 222.214 40.912C221.947 41.296 221.569 41.6 221.078 41.824C220.598 42.0373 220.043 42.144 219.414 42.144Z" fill="#FA542F"/>
<ellipse cx="35" cy="30.5" rx="25" ry="25.5" fill="#FA542F"/>
<path d="M29.1785 35.5064C27.0359 35.5064 25.2945 32.9849 25.2945 29.8854C25.2945 26.786 27.0373 24.2645 29.1785 24.2645C31.3198 24.2645 33.0626 26.786 33.0626 29.8854C33.0626 32.9849 31.3198 35.5064 29.1785 35.5064V35.5064Z" fill="#FAFAFA"/>
<path d="M29.1785 24.5289C30.0992 24.5289 30.981 25.0578 31.66 26.0191C32.3849 27.0439 32.7848 28.4177 32.7848 29.8854C32.7848 31.3532 32.3849 32.727 31.66 33.7518C30.981 34.7131 30.0992 35.242 29.1785 35.242C28.2579 35.242 27.3761 34.7131 26.6971 33.7518C25.9708 32.727 25.5723 31.3532 25.5723 29.8854C25.5723 28.4177 25.9722 27.0439 26.6971 26.0191C27.3761 25.0578 28.2565 24.5289 29.1785 24.5289M29.1785 24C26.8804 24 25.0168 26.6353 25.0168 29.8854C25.0168 33.1356 26.8804 35.7709 29.1785 35.7709C31.4767 35.7709 33.3403 33.1356 33.3403 29.8854C33.3403 26.6353 31.4767 24 29.1785 24V24Z" fill="#FAFAFA"/>
<path d="M27.994 29.3354C27.6191 28.9995 27.7024 28.3331 28.1829 27.8465C28.2079 27.8214 28.2329 27.7976 28.2593 27.7751C28.0454 27.6601 27.8107 27.5953 27.5636 27.5953C26.5651 27.5953 25.7556 28.6438 25.7556 29.9357C25.7556 31.2276 26.5651 32.2761 27.5636 32.2761C28.562 32.2761 29.3716 31.2276 29.3716 29.9357C29.3716 29.7043 29.3452 29.4795 29.2966 29.2679C28.8467 29.576 28.3093 29.617 27.994 29.3354V29.3354Z" fill="url(#paint0_linear_6_2)"/>
<path d="M37.4659 35.7709C39.7644 35.7709 41.6276 33.1359 41.6276 29.8854C41.6276 26.635 39.7644 24 37.4659 24C35.1674 24 33.3042 26.635 33.3042 29.8854C33.3042 33.1359 35.1674 35.7709 37.4659 35.7709Z" fill="#EEEEEE"/>
<path d="M37.4659 35.5064C35.3246 35.5064 33.5819 32.9849 33.5819 29.8854C33.5819 26.786 35.3246 24.2645 37.4659 24.2645C39.6072 24.2645 41.3499 26.786 41.3499 29.8854C41.3499 32.9849 39.6086 35.5064 37.4659 35.5064V35.5064Z" fill="#FAFAFA"/>
<path d="M37.4659 24.5289C38.3866 24.5289 39.2683 25.0578 39.9474 26.0191C40.6723 27.0439 41.0722 28.4177 41.0722 29.8854C41.0722 31.3532 40.6723 32.727 39.9474 33.7518C39.2683 34.7131 38.3866 35.242 37.4659 35.242C36.5452 35.242 35.6635 34.7131 34.9844 33.7518C34.2595 32.727 33.8596 31.3532 33.8596 29.8854C33.8596 28.4177 34.2595 27.0439 34.9844 26.0191C35.6635 25.0578 36.5452 24.5289 37.4659 24.5289M37.4659 24C35.1677 24 33.3042 26.6353 33.3042 29.8854C33.3042 33.1356 35.1677 35.7709 37.4659 35.7709C39.7641 35.7709 41.6276 33.1356 41.6276 29.8854C41.6276 26.6353 39.7641 24 37.4659 24V24Z" fill="#FAFAFA"/>
<path d="M36.2814 29.3354C35.9065 28.9995 35.9898 28.3331 36.4703 27.8465C36.4952 27.8214 36.5202 27.7976 36.5466 27.7751C36.3328 27.6601 36.0981 27.5953 35.8509 27.5953C34.8525 27.5953 34.0429 28.6438 34.0429 29.9357C34.0429 31.2276 34.8525 32.2761 35.8509 32.2761C36.8493 32.2761 37.6589 31.2276 37.6589 29.9357C37.6589 29.7043 37.6325 29.4795 37.5839 29.2679C37.1354 29.576 36.5966 29.617 36.2814 29.3354V29.3354Z" fill="url(#paint1_linear_6_2)"/>
</g>
<defs>
<linearGradient id="paint0_linear_6_2" x1="27.5626" y1="27.5947" x2="27.5626" y2="32.2765" gradientUnits="userSpaceOnUse">
<stop stop-color="#424242"/>
<stop offset="1" stop-color="#212121"/>
</linearGradient>
<linearGradient id="paint1_linear_6_2" x1="35.8508" y1="27.5947" x2="35.8508" y2="32.2765" gradientUnits="userSpaceOnUse">
<stop stop-color="#424242"/>
<stop offset="1" stop-color="#212121"/>
</linearGradient>
<clipPath id="clip0_6_2">
<rect width="229" height="60" fill="white"/>
</clipPath>
</defs>
</svg>
